<svg viewBox="0 0 16.5103 12.8649" xmlns="http://www.w3.org/2000/svg" xmlns:xlink="http://www.w3.org/1999/xlink" width="16.510254" height="12.864868" fill="none" customFrame="#000000">
    <path id="path14" d="M123.826 82.2674L118.929 82.2674C117.111 82.2674 114.539 79.6859 114.539 78.0331L114.539 18.1293C114.539 16.4745 117.111 14.2191 118.929 14.2191L123.826 14.2191L123.826 0L79.455 0L79.455 14.2191L88.742 14.2191L88.742 77.1892L88.2869 77.1892L66.6 0L49.8097 0L28.4026 77.1892L27.8609 77.1892L27.8609 14.2191L37.1478 14.2191L37.1478 0L0 0L0 14.2191L4.75675 14.2191C6.7157 14.2191 9.28695 16.4745 9.28695 18.1293L9.28695 78.0331C9.28695 79.6859 6.7157 82.2674 4.75675 82.2674L0 82.2674L0 96.4865L46.4517 96.4865L61.7026 40.6259L62.1222 40.6259L77.5142 96.4865L123.826 96.4865L123.826 82.2674Z" fill="rgb(117.184,125.899,154.225)" fill-rule="nonzero" transform="matrix(0.133333,0,0,-0.133333,0,12.8649)" />
</svg>
